<svg width="178" height="64" viewBox="0 0 178 64" fill="none" xmlns="http://www.w3.org/2000/svg">
<path d="M150.933 34.5624C150.303 34.1563 149.653 33.7372 149.001 33.3609C150.695 31.4806 152.065 30.5503 153.162 30.1692C154.394 29.7413 155.44 29.9515 156.547 30.6259C157.735 31.3505 158.891 32.5514 160.212 34.009C160.347 34.1578 160.483 34.3093 160.622 34.4628C161.333 35.2516 162.09 36.0914 162.894 36.8785C161.67 37.5123 160.545 37.7976 159.509 37.8633C158.021 37.9575 156.598 37.6058 155.195 36.9973C153.776 36.3821 152.443 35.5356 151.108 34.6753C151.05 34.6378 150.991 34.6002 150.933 34.5624Z" stroke="#FCFCFC" stroke-width="3"/>
<path d="M147.079 18.8391V43.9542M125.003 19.319V44.4341C125.001 51.6513 147.079 52.2726 147.079 43.7942M147.079 31.6366C147.079 40.115 125.001 39.4936 125.003 32.2765M125.003 18.999C124.683 12.1204 147.079 12.7602 147.079 18.3592C147.079 26.8375 125.001 26.2162 125.003 18.999Z" stroke="#FCFCFC" stroke-width="3"/>
<path d="M14.144 21.656V26.456H7.36V40.696H10.624C11.008 40.696 11.392 40.6853 11.776 40.664C12.16 40.6427 12.544 40.6 12.928 40.536C13.2907 40.5147 13.632 40.472 13.952 40.408C14.272 40.344 14.56 40.2587 14.816 40.152V44.728C14.56 44.8987 14.272 45.0373 13.952 45.144C13.6533 45.2293 13.312 45.2933 12.928 45.336C12.5013 45.4 12.0853 45.4427 11.68 45.464C11.2747 45.4853 10.88 45.496 10.496 45.496H1.76V21.656H14.144ZM22.976 35.704C22.6987 35.768 22.4107 35.832 22.112 35.896C21.8133 35.96 21.504 35.992 21.184 35.992V46.968H16.096V21.08H21.184V30.552H22.976V21.08H28.032V46.968H22.976V35.704ZM31.126 26.808C32.854 26.552 34.358 26.2427 35.638 25.88C36.9393 25.5173 38.0273 25.0907 38.902 24.6C39.7553 24.152 40.4167 23.6933 40.886 23.224C41.3553 22.7333 41.622 22.2427 41.686 21.752L41.75 21.176H47.734V21.528C47.67 21.8907 47.5953 22.232 47.51 22.552C47.446 22.8507 47.3607 23.1493 47.254 23.448C47.9793 23.576 48.7047 23.736 49.43 23.928C50.1553 24.0987 50.87 24.3013 51.574 24.536C52.4913 24.8773 53.4087 25.2613 54.326 25.688C55.2647 26.0933 56.182 26.5413 57.078 27.032L54.902 30.968C54.646 30.84 54.4007 30.7227 54.166 30.616C53.9313 30.488 53.7073 30.3707 53.494 30.264C53.2593 30.1573 53.0247 30.0507 52.79 29.944C52.5767 29.816 52.374 29.6987 52.182 29.592C51.734 29.4 51.2967 29.2293 50.87 29.08C50.4433 28.9093 50.0167 28.7387 49.59 28.568C49.142 28.44 48.694 28.312 48.246 28.184C47.798 28.0347 47.35 27.896 46.902 27.768C46.4753 27.704 46.0273 27.6293 45.558 27.544C45.11 27.4373 44.662 27.3307 44.214 27.224C44.15 27.288 44.0753 27.3413 43.99 27.384C43.926 27.4267 43.862 27.4693 43.798 27.512C43.734 27.5547 43.67 27.5973 43.606 27.64C43.542 27.6827 43.478 27.7147 43.414 27.736C42.1127 28.504 40.5553 29.1547 38.742 29.688C36.9287 30.2213 34.8593 30.6267 32.534 30.904L31.126 26.808ZM40.598 37.016V35.896H30.614V31.896H57.078V35.896H46.774V37.016H55.894V41.112H52.886V42.744H55.894V46.84H31.83V42.744H35.222V41.112H31.83V37.016H40.598ZM40.662 41.112V42.744H47.446V41.112H40.662ZM67.2428 26.2C67.0721 26.2 66.9014 26.232 66.7308 26.296C66.5814 26.3387 66.4428 26.392 66.3148 26.456C66.1441 26.5627 65.9948 26.7013 65.8668 26.872C65.7388 27.0213 65.6214 27.224 65.5148 27.48C65.3868 27.736 65.2801 28.056 65.1948 28.44C65.1308 28.8027 65.0668 29.208 65.0028 29.656C64.9174 30.1467 64.8534 30.712 64.8108 31.352C64.7894 31.9707 64.7788 32.664 64.7788 33.432C64.7788 34.2427 64.7894 34.968 64.8108 35.608C64.8534 36.2267 64.9174 36.76 65.0028 37.208C65.0668 37.6987 65.1308 38.1253 65.1948 38.488C65.2801 38.8507 65.3868 39.16 65.5148 39.416C65.6214 39.672 65.7388 39.8853 65.8668 40.056C65.9948 40.2267 66.1441 40.344 66.3148 40.408C66.4428 40.5147 66.5814 40.5893 66.7308 40.632C66.9014 40.6533 67.0721 40.664 67.2428 40.664C67.3708 40.664 67.5094 40.6533 67.6588 40.632C67.8081 40.5893 67.9681 40.5147 68.1388 40.408C68.2668 40.344 68.3948 40.2267 68.5228 40.056C68.6721 39.8853 68.8108 39.672 68.9388 39.416C69.0241 39.16 69.1094 38.8507 69.1948 38.488C69.3014 38.1253 69.3974 37.6987 69.4828 37.208C69.5468 36.76 69.6001 36.2267 69.6428 35.608C69.6854 34.968 69.7068 34.2427 69.7068 33.432C69.7068 32.664 69.6854 31.9707 69.6428 31.352C69.6001 30.712 69.5468 30.1467 69.4828 29.656C69.3974 29.208 69.3014 28.8027 69.1948 28.44C69.1094 28.056 69.0241 27.736 68.9388 27.48C68.8108 27.224 68.6721 27.0213 68.5228 26.872C68.3948 26.7013 68.2668 26.5627 68.1388 26.456C67.9681 26.392 67.8081 26.3387 67.6588 26.296C67.5094 26.232 67.3708 26.2 67.2428 26.2ZM67.2428 20.92C67.8401 20.92 68.4054 20.984 68.9388 21.112C69.4934 21.2187 70.0268 21.3787 70.5388 21.592C71.0081 21.848 71.4454 22.1573 71.8508 22.52C72.2561 22.8827 72.6401 23.3093 73.0028 23.8C73.3228 24.312 73.6214 24.8987 73.8988 25.56C74.1761 26.2 74.4108 26.904 74.6028 27.672C74.7734 28.4827 74.9014 29.368 74.9868 30.328C75.0934 31.288 75.1468 32.3227 75.1468 33.432C75.1468 34.584 75.0934 35.6507 74.9868 36.632C74.9014 37.592 74.7734 38.456 74.6028 39.224C74.4108 40.0347 74.1761 40.76 73.8988 41.4C73.6214 42.04 73.3228 42.6053 73.0028 43.096C72.6401 43.608 72.2561 44.0453 71.8508 44.408C71.4454 44.7707 71.0081 45.0587 70.5388 45.272C70.0268 45.5067 69.4934 45.6773 68.9388 45.784C68.4054 45.8907 67.8401 45.944 67.2428 45.944C66.6028 45.944 66.0054 45.8907 65.4508 45.784C64.9174 45.6773 64.4161 45.5067 63.9468 45.272C63.4348 45.0587 62.9654 44.7707 62.5388 44.408C62.1334 44.0453 61.7708 43.608 61.4508 43.096C61.0881 42.6053 60.7788 42.04 60.5228 41.4C60.2668 40.76 60.0534 40.0347 59.8828 39.224C59.6908 38.456 59.5521 37.592 59.4668 36.632C59.3814 35.6507 59.3388 34.584 59.3388 33.432C59.3388 32.3227 59.3814 31.288 59.4668 30.328C59.5521 29.368 59.6908 28.4827 59.8828 27.672C60.0534 26.904 60.2668 26.2 60.5228 25.56C60.7788 24.8987 61.0881 24.312 61.4508 23.8C61.7708 23.3093 62.1334 22.8827 62.5388 22.52C62.9654 22.1573 63.4348 21.848 63.9468 21.592C64.4161 21.3787 64.9174 21.2187 65.4508 21.112C66.0054 20.984 66.6028 20.92 67.2428 20.92ZM77.5788 46.84V21.08H83.4988V46.84H77.5788ZM102.074 27H100.09C100.602 27.4907 100.986 28.024 101.242 28.6C101.519 29.1547 101.658 29.752 101.658 30.392C101.658 31.2027 101.498 31.928 101.178 32.568C100.879 33.1867 100.431 33.7307 99.8338 34.2C99.2151 34.6907 98.4471 35.0533 97.5298 35.288C96.6124 35.5227 95.5458 35.64 94.3298 35.64C93.0711 35.64 91.9831 35.5227 91.0658 35.288C90.1484 35.0533 89.4018 34.6907 88.8258 34.2C88.2071 33.7307 87.7484 33.1867 87.4498 32.568C87.1511 31.928 87.0018 31.2027 87.0018 30.392C87.0018 29.752 87.1298 29.1547 87.3858 28.6C87.6418 28.024 88.0364 27.4907 88.5698 27H86.5858V22.712H91.3858V20.12H97.3058V22.712H102.074V27ZM94.3298 31.64C94.6498 31.64 94.9271 31.608 95.1618 31.544C95.4178 31.4587 95.6418 31.3307 95.8338 31.16C96.0044 31.0107 96.1324 30.8293 96.2178 30.616C96.3244 30.4027 96.3778 30.1467 96.3778 29.848C96.3778 29.5707 96.3244 29.3147 96.2178 29.08C96.1324 28.8453 96.0151 28.632 95.8658 28.44C95.6738 28.2907 95.4498 28.1733 95.1938 28.088C94.9378 27.9813 94.6498 27.928 94.3298 27.928C93.9671 27.928 93.6578 27.9813 93.4018 28.088C93.1458 28.1733 92.9431 28.2907 92.7938 28.44C92.6018 28.632 92.4631 28.8453 92.3778 29.08C92.3138 29.3147 92.2818 29.5707 92.2818 29.848C92.2818 30.1467 92.3244 30.4027 92.4098 30.616C92.4951 30.8293 92.6338 31.0107 92.8258 31.16C92.9751 31.3307 93.1778 31.4587 93.4338 31.544C93.6898 31.608 93.9884 31.64 94.3298 31.64ZM105.914 36.024V34.072H105.818C105.711 34.1147 105.604 34.136 105.498 34.136C105.412 34.136 105.338 34.136 105.274 34.136C105.167 34.1573 105.071 34.168 104.986 34.168C104.9 34.168 104.815 34.168 104.73 34.168H102.874V29.528H105.914V27.992H105.818C105.711 28.0347 105.604 28.056 105.498 28.056C105.412 28.056 105.338 28.056 105.274 28.056C105.167 28.0773 105.071 28.088 104.986 28.088C104.9 28.088 104.815 28.088 104.73 28.088H102.874V23.448H105.914V21.08H111.514V36.024H105.914ZM100.506 43.64C101.018 43.64 101.476 43.64 101.882 43.64C102.308 43.6187 102.692 43.5867 103.034 43.544C103.354 43.544 103.642 43.5227 103.898 43.48C104.154 43.4373 104.378 43.384 104.57 43.32C104.762 43.256 104.922 43.192 105.05 43.128C105.178 43.064 105.284 42.9787 105.37 42.872C105.434 42.808 105.476 42.7227 105.498 42.616C105.54 42.488 105.562 42.36 105.562 42.232C105.562 42.1253 105.54 42.0187 105.498 41.912C105.476 41.8053 105.434 41.6987 105.37 41.592C105.284 41.528 105.178 41.464 105.05 41.4C104.922 41.3147 104.762 41.24 104.57 41.176C104.378 41.112 104.154 41.0587 103.898 41.016C103.642 40.9733 103.354 40.9307 103.034 40.888C102.692 40.8667 102.308 40.8453 101.882 40.824C101.476 40.8027 101.018 40.792 100.506 40.792C99.9724 40.792 99.4924 40.8027 99.0658 40.824C98.6391 40.8453 98.2658 40.8667 97.9458 40.888C97.6044 40.9307 97.3058 40.9733 97.0498 41.016C96.7938 41.0587 96.5804 41.112 96.4098 41.176C96.2178 41.24 96.0578 41.3147 95.9298 41.4C95.8018 41.464 95.7058 41.528 95.6418 41.592C95.5778 41.6987 95.5244 41.8053 95.4818 41.912C95.4604 42.0187 95.4498 42.1253 95.4498 42.232C95.4498 42.36 95.4604 42.488 95.4818 42.616C95.5244 42.7227 95.5778 42.808 95.6418 42.872C95.7058 42.9787 95.8018 43.064 95.9298 43.128C96.0578 43.192 96.2178 43.256 96.4098 43.32C96.5804 43.384 96.7938 43.4373 97.0498 43.48C97.3058 43.5227 97.6044 43.544 97.9458 43.544C98.2658 43.5867 98.6391 43.6187 99.0658 43.64C99.4924 43.64 99.9724 43.64 100.506 43.64ZM100.506 47.8C99.3964 47.8 98.3831 47.768 97.4658 47.704C96.5484 47.64 95.7378 47.544 95.0338 47.416C94.2871 47.288 93.6151 47.1387 93.0178 46.968C92.4418 46.776 91.9511 46.552 91.5458 46.296C91.0978 46.0827 90.7138 45.8373 90.3938 45.56C90.0951 45.2613 89.8711 44.9307 89.7218 44.568C89.5298 44.248 89.3911 43.896 89.3058 43.512C89.2204 43.128 89.1778 42.7227 89.1778 42.296C89.1778 41.912 89.2204 41.5387 89.3058 41.176C89.3911 40.792 89.5298 40.4187 89.7218 40.056C89.8924 39.736 90.1271 39.4267 90.4258 39.128C90.7458 38.808 91.1298 38.52 91.5778 38.264C92.0044 38.0293 92.5058 37.816 93.0818 37.624C93.6578 37.432 94.3191 37.2507 95.0658 37.08C95.7698 36.952 96.5804 36.8453 97.4978 36.76C98.4151 36.6747 99.4178 36.632 100.506 36.632C101.572 36.632 102.554 36.6747 103.45 36.76C104.346 36.8453 105.167 36.952 105.914 37.08C106.618 37.2507 107.258 37.432 107.834 37.624C108.431 37.816 108.954 38.0293 109.402 38.264C109.828 38.52 110.202 38.808 110.522 39.128C110.842 39.4267 111.098 39.736 111.29 40.056C111.46 40.4187 111.588 40.792 111.674 41.176C111.78 41.5387 111.834 41.912 111.834 42.296C111.834 42.7227 111.78 43.128 111.674 43.512C111.588 43.896 111.46 44.248 111.29 44.568C111.098 44.9307 110.842 45.2613 110.522 45.56C110.223 45.8373 109.86 46.0827 109.434 46.296C108.986 46.552 108.474 46.776 107.898 46.968C107.322 47.1387 106.682 47.288 105.978 47.416C105.231 47.544 104.399 47.64 103.482 47.704C102.586 47.768 101.594 47.8 100.506 47.8Z" fill="#FCFCFC"/>
</svg>
